<svg width="23" height="21" viewBox="0 0 23 21" fill="none" xmlns="http://www.w3.org/2000/svg">
<path d="M21.5216 18.7156C21.8884 19.0541 21.912 19.6262 21.5737 19.9933C21.2354 20.3604 20.6632 20.3834 20.296 20.0454L0.791827 2.06932C0.424612 1.73087 0.401289 1.15882 0.739733 0.79161C1.07818 0.424395 1.65023 0.401072 2.01744 0.739516L21.5216 18.7156Z" fill="#0153FD" stroke="#0153FD" stroke-linecap="round" stroke-linejoin="round"/>
<path d="M0.791848 18.7155C0.425049 19.0539 0.401443 19.6261 0.739754 19.9932C1.07806 20.3602 1.65023 20.3833 2.01746 20.0453L21.5216 2.06919C21.8889 1.73075 21.9122 1.1587 21.5737 0.791488C21.2353 0.424273 20.6633 0.40095 20.296 0.739393L0.791848 18.7155Z" fill="#0153FD" stroke="#0153FD" stroke-linecap="round" stroke-linejoin="round"/>
</svg>
