<svg width="30" height="19" viewBox="0 0 30 19" fill="currentColor" xmlns="http://www.w3.org/2000/svg">
<path d="M27.9288 0.5C28.4279 0.500319 28.833 0.905032 28.833 1.40423C28.833 1.90342 28.4279 2.30813 27.9288 2.30845H1.40423C0.904836 2.30845 0.5 1.90362 0.5 1.40423C0.5 0.904836 0.904836 0.5 1.40423 0.5H27.9288Z" fill="black" stroke="black" stroke-linecap="round" stroke-linejoin="round"/>
<path d="M27.9288 8.30847C28.4279 8.30879 28.833 8.7135 28.833 9.2127C28.833 9.71189 28.4279 10.1166 27.9288 10.1169H1.40423C0.904836 10.1169 0.5 9.71209 0.5 9.2127C0.5 8.71331 0.904836 8.30847 1.40423 8.30847H27.9288Z" fill="black" stroke="black" stroke-linecap="round" stroke-linejoin="round"/>
<path d="M27.9288 16.1169C28.4279 16.1173 28.833 16.522 28.833 17.0212C28.833 17.5204 28.4279 17.9251 27.9288 17.9254H1.40423C0.904836 17.9254 0.5 17.5206 0.5 17.0212C0.5 16.5218 0.904836 16.1169 1.40423 16.1169H27.9288Z" fill="black" stroke="black" stroke-linecap="round" stroke-linejoin="round"/>
</svg>
