<svg width="38" height="39" viewBox="0 0 38 39" fill="none" xmlns="http://www.w3.org/2000/svg">
<path d="M6.30545 0.0275612C13.2579 -0.564496 16.565 8.53627 10.9616 12.4946C10.2194 13.019 9.43067 13.2706 8.66311 13.6787L8.62082 20.9187C8.32691 22.9233 5.59075 23.0332 5.189 21.0266L5.14882 13.6787C4.63289 13.3615 4.05563 13.2347 3.48261 12.9175C-2.38511 9.66964 -0.431318 0.602703 6.30334 0.0296762L6.30545 0.0275612ZM10.3632 6.93561C10.3632 5.01776 8.80901 3.46361 6.88905 3.46361C4.96909 3.46361 3.41494 5.01776 3.41494 6.93561C3.41494 8.85345 4.96909 10.4076 6.88905 10.4076C8.80901 10.4076 10.3632 8.85345 10.3632 6.93561Z" fill="#3385FF"/>
<path d="M25.1159 8.65048H18.6244C18.58 8.65048 18.1318 8.43691 18.0493 8.38194C17.2225 7.84697 17.0618 6.64383 17.6391 5.86992C17.7406 5.73459 18.3178 5.27364 18.4151 5.27364H24.9595L25.118 5.11505V2.77219C25.118 1.03739 26.3585 0.974874 27.7168 0.998268C30.322 1.04314 33.1425 0.700939 35.6271 0.943156C36.439 1.02139 37.0649 1.66208 37.1537 2.47828C36.993 5.29689 37.3673 8.34599 37.158 11.1371C37.0818 12.1584 36.5786 12.8604 35.5171 12.981C32.8775 13.2785 29.72 12.8058 26.9767 12.9438C25.6988 13.0081 25.1202 12.2516 25.1202 11.1244V8.65259L25.1159 8.65048ZM33.6669 4.32423H28.4949V9.602H33.6669V4.32423Z" fill="#3385FF"/>
<path d="M12.8707 35.9337C12.6956 36.9224 11.7262 37.1354 10.9063 37.1042C8.13925 36.9989 5.02325 37.432 2.36805 37.1474C1.21466 37.0255 0.919221 36.0986 0.923453 35.1239C0.935414 32.375 0.837202 30.1548 0.837161 26.7526C0.942885 25.8095 1.49479 25.2703 2.44843 25.1858C5.09549 24.9528 8.07548 25.2476 10.8006 25.1458C12.4366 25.0846 12.8728 25.9002 12.8728 27.3002V29.2836L13.0314 29.4422H18.8357C19.4497 29.4422 19.9797 29.5784 20.3687 30.1273C20.9333 30.9245 20.7705 31.9204 19.9987 32.5019C19.5944 32.8078 19.3228 32.8191 18.8357 32.8191H13.0335L12.875 32.9777C12.765 33.8636 13.023 35.0964 12.875 35.9337H12.8707ZM9.49177 28.4928H4.31973V33.7706H9.49177V28.4928Z" fill="#3385FF"/>
<path d="M32.8358 24.4668C37.4412 25.744 39.5303 31.1021 36.7497 35.1112C34.0812 38.9596 28.3087 39.0674 25.5535 35.2804C22.6461 31.284 24.6168 25.8307 29.2898 24.4859C29.4695 24.2342 29.2496 19.8594 29.3469 19.0559C29.6324 16.6961 32.6201 16.7743 32.8231 19.0389C32.8929 19.8128 32.6878 24.2364 32.8337 24.4647L32.8358 24.4668ZM34.5634 31.1381C34.5634 29.2223 33.0092 27.6682 31.0935 27.6682C29.1777 27.6682 27.6236 29.2223 27.6236 31.1381C27.6236 33.0538 29.1777 34.6079 31.0935 34.6079C33.0092 34.6079 34.5634 33.0538 34.5634 31.1381Z" fill="#3385FF"/>
</svg>
