<svg width="47" height="47" viewBox="0 0 47 47" fill="none" xmlns="http://www.w3.org/2000/svg">
<path d="M46.0708 18.3337C48.3872 20.9634 45.9805 23.1032 43.3165 23.672C40.4808 24.2747 37.3788 24.3154 34.5138 24.8413C34.1074 27.3107 33.9765 29.8388 33.5882 32.3105C33.3037 34.123 32.8025 36.8814 30.5877 37.1974C28.1427 37.545 26.9845 35.1343 26.0702 33.324C24.9662 31.1412 24.0766 28.8411 22.9049 26.6877L14.1519 28.3107C8.72902 28.7892 8.54163 24.3199 12.023 21.4487L17.5858 16.1961C16.5044 13.9953 15.1634 11.9186 14.0503 9.73589C13.5717 8.79914 12.9147 7.65247 12.786 6.60511C12.4948 4.25984 14.0594 2.74524 16.3893 3.11317C19.7668 4.15601 22.7107 6.37261 25.885 7.8985L31.3441 2.1245C34.3197 -1.37647 38.6273 -0.548063 37.9816 4.59166L36.3583 13.2323L43.7048 16.6995C44.4521 17.1802 45.4793 17.6656 46.0686 18.3359L46.0708 18.3337ZM41.7135 20.0966C41.6864 19.9341 41.5058 19.8799 41.3794 19.8099C38.9118 18.4646 35.8775 17.5053 33.4843 16.099C32.4661 15.5009 32.2833 15.0562 32.3736 13.8576L34.0465 4.8851L27.4022 11.8193C27.0184 12.1511 26.4923 12.2662 26.0024 12.2008L17.2585 7.59152L21.8506 16.2367C21.9477 16.8281 21.8393 17.2547 21.4871 17.7333C20.7082 18.7851 18.647 20.5142 17.5971 21.5074C16.8498 22.2139 16.0281 22.8775 15.283 23.5885C15.1589 23.7059 14.5561 24.2431 14.6667 24.3808L23.3 22.7037C24.2256 22.6157 25.0836 22.6315 25.6435 23.4892C26.7587 25.2025 27.8221 28.2181 28.7681 30.1684C29.0503 30.7507 29.3415 31.4663 29.766 31.9313L31.0957 22.2726C31.4118 21.8008 31.8836 21.3945 32.4436 21.2546L41.7113 20.0988L41.7135 20.0966Z" fill="#3385FF"/>
<path d="M19.7102 30.7169C21.5751 30.3331 22.7378 32.4595 21.5412 33.8996L9.09018 46.3505C7.33598 48.1111 4.66967 45.8584 6.22295 43.8201L18.8365 31.1931C19.0442 31.0329 19.4664 30.7643 19.7102 30.7146V30.7169Z" fill="#3385FF"/>
<path d="M0.312256 38.247L8.47146 30.0668C8.72658 29.8637 9.14425 29.6312 9.46032 29.586C11.3094 29.3197 12.3321 31.5543 11.0633 32.8838C8.41954 35.1659 6.01512 38.4366 3.3443 40.6013C1.32821 42.2333 -0.816578 40.4298 0.312256 38.247Z" fill="#3385FF"/>
<path d="M23.657 38.3779C25.3256 38.1115 26.4162 39.8859 25.583 41.3194L20.2973 46.6267C18.4797 47.8547 16.4272 45.8162 17.6194 43.9471C18.0936 43.2021 21.7559 39.606 22.5574 38.9694C22.8667 38.7256 23.2619 38.4411 23.657 38.3779Z" fill="#3385FF"/>
</svg>
