<svg  viewBox="0 0 14 24" fill="none" xmlns="http://www.w3.org/2000/svg">
<path d="M1.28278 0.0478755C4.042 -0.201115 13.1475 8.67858 12.9779 11.2027C11.5595 11.0983 9.78961 11.1162 8.43281 10.6149C6.41113 9.86788 4.11109 7.71426 2.99732 6.41575C1.95158 5.19695 -0.0931634 2.19137 0.536769 0.55305C0.662024 0.227128 0.94347 0.078557 1.28278 0.0478755Z" fill="#FDFDFD"/>
<path d="M1.31787 23.4915C4.07038 23.806 13.3846 15.1455 13.2751 12.6181C11.8547 12.6887 10.0857 12.6287 8.71734 13.0976C6.67845 13.7963 4.32781 15.8945 3.18345 17.1662C2.10901 18.3598 -0.00667638 21.3158 0.584091 22.9687C0.701555 23.2975 0.979385 23.4527 1.31787 23.4915Z" fill="#FDFDFD"/>
</svg>
