<svg width="23" height="21" viewBox="0 0 23 21" fill="none" xmlns="http://www.w3.org/2000/svg">
<path d="M22.1342 0.177497C22.036 0.0906259 21.9166 0.0328673 21.7887 0.0104538C21.6609 -0.0119597 21.5295 0.0018228 21.4088 0.050314L0.790856 8.31823C0.540077 8.41878 0.327903 8.59999 0.186198 8.83464C0.0444922 9.06928 -0.0190949 9.34471 0.00498594 9.61954C0.0290667 9.89438 0.139515 10.1538 0.319745 10.3588C0.499974 10.5639 0.740255 10.7034 1.0045 10.7566L6.51048 11.8648V18.1395C6.5106 18.4303 6.59554 18.7146 6.75442 18.9556C6.91329 19.1967 7.13884 19.3836 7.40213 19.4924C7.66542 19.6012 7.95442 19.6269 8.23206 19.5662C8.50969 19.5055 8.76329 19.3611 8.9603 19.1517L11.6706 16.2713L15.9008 20.0712C16.159 20.3053 16.4919 20.4347 16.8367 20.435C16.9873 20.4346 17.137 20.4104 17.2803 20.3631C17.5153 20.2869 17.7267 20.1489 17.8934 19.9628C18.0602 19.7768 18.1764 19.5493 18.2305 19.3029L22.3631 0.893681C22.3921 0.764261 22.3862 0.629171 22.3458 0.502967C22.3055 0.376763 22.2323 0.264231 22.1342 0.177497ZM1.22527 9.52543C1.22137 9.51467 1.22137 9.50283 1.22527 9.49207C1.22987 9.48843 1.23502 9.48561 1.24053 9.48373L17.4889 2.96613L6.97949 10.6805L1.24053 9.5296L1.22527 9.52543ZM8.08129 18.2823C8.05325 18.3121 8.01718 18.3327 7.97768 18.3414C7.93818 18.3501 7.89704 18.3466 7.8595 18.3313C7.82196 18.316 7.78972 18.2895 7.76689 18.2554C7.74406 18.2212 7.73168 18.1809 7.73132 18.1395V12.73L10.7519 15.4405L8.08129 18.2823ZM17.0412 19.0203C17.0337 19.0556 17.0171 19.0881 16.9931 19.1145C16.9691 19.1409 16.9387 19.1603 16.9049 19.1705C16.8705 19.1829 16.8334 19.1855 16.7976 19.1782C16.7618 19.1709 16.7286 19.1538 16.7014 19.1288L8.10164 11.3988L20.8553 2.03311L17.0412 19.0203Z" fill="#0153FD"/>
</svg>
