<svg width="50" height="48" viewBox="0 0 50 48" fill="none" xmlns="http://www.w3.org/2000/svg">
<path d="M34.5201 28.06C33.6668 28.056 32.8949 27.8214 32.2043 27.3564C31.5138 26.8913 30.9697 26.2462 30.572 25.4211C30.1844 24.5861 29.9931 23.6264 29.9982 22.5422C30.0034 21.4479 30.2036 20.4951 30.599 19.6838C30.9944 18.8624 31.5345 18.2275 32.2192 17.7789C32.9041 17.3203 33.6782 17.0931 34.5415 17.0971C35.4149 17.1012 36.1919 17.3358 36.8724 17.8008C37.5529 18.2558 38.087 18.8958 38.4747 19.7208C38.8724 20.5459 39.0686 21.5056 39.0635 22.5999C39.0583 23.6941 38.853 24.6519 38.4476 25.4732C38.0522 26.2946 37.5121 26.9346 36.8273 27.3932C36.1525 27.8418 35.3835 28.064 34.5201 28.06ZM34.5149 25.9667C34.9566 25.9688 35.3387 25.8451 35.6611 25.5957C35.9836 25.3362 36.2313 24.9558 36.4044 24.4547C36.5875 23.9435 36.6808 23.3215 36.6842 22.5887C36.6877 21.8458 36.6003 21.2229 36.4219 20.7201C36.2536 20.2174 36.0094 19.8397 35.6894 19.5873C35.3693 19.3247 34.9835 19.1924 34.5317 19.1903C34.1 19.1882 33.7179 19.3119 33.3855 19.5614C33.063 19.8108 32.8153 20.1861 32.6423 20.6873C32.4693 21.1884 32.381 21.8105 32.3775 22.5534C32.374 23.2963 32.4564 23.9191 32.6247 24.4218C32.793 24.9246 33.0372 25.3072 33.3572 25.5698C33.6873 25.8323 34.0732 25.9647 34.5149 25.9667Z" fill="#3385FF"/>
<path d="M19.6494 27.8244L26.0692 17.2229L28.1774 17.2328L21.7576 27.8343L19.6494 27.8244ZM26.3046 28.0062C25.893 28.0043 25.517 27.9022 25.1767 27.6998C24.8463 27.4974 24.5815 27.2301 24.3823 26.8979C24.1831 26.5556 24.0845 26.1787 24.0864 25.7671C24.0884 25.3454 24.1906 24.9745 24.3929 24.6542C24.5952 24.3238 24.8625 24.059 25.1947 23.8598C25.527 23.6606 25.8989 23.5619 26.3105 23.5639C26.7422 23.5659 27.1232 23.6681 27.4535 23.8704C27.7939 24.0728 28.0637 24.3401 28.2629 24.6724C28.4622 24.9946 28.5608 25.3665 28.5589 25.7881C28.5569 26.1997 28.4548 26.5757 28.2524 26.9161C28.05 27.2565 27.7777 27.5263 27.4354 27.7254C27.1032 27.9146 26.7263 28.0082 26.3046 28.0062ZM26.312 26.4401C26.5027 26.441 26.6586 26.3815 26.7797 26.2616C26.9007 26.1417 26.9617 25.9814 26.9626 25.7806C26.9635 25.5999 26.904 25.449 26.7841 25.328C26.6642 25.1969 26.5089 25.1309 26.3182 25.13C26.1375 25.1292 25.9866 25.1937 25.8655 25.3237C25.7445 25.4436 25.6835 25.5939 25.6827 25.7746C25.6817 25.9754 25.7412 26.1363 25.8611 26.2573C25.981 26.3784 26.1313 26.4393 26.312 26.4401ZM21.4863 21.4781C21.0747 21.4762 20.6987 21.379 20.3583 21.1867C20.0279 20.9843 19.7632 20.7171 19.5639 20.3848C19.3648 20.0426 19.2662 19.6606 19.2681 19.2389C19.2701 18.8273 19.3722 18.4564 19.5746 18.126C19.7769 17.7957 20.0442 17.5359 20.3763 17.3467C20.7086 17.1475 21.0805 17.0489 21.4921 17.0508C21.9238 17.0528 22.3048 17.155 22.6351 17.3573C22.9756 17.5497 23.2454 17.812 23.4446 18.1442C23.6439 18.4765 23.7425 18.8484 23.7406 19.26C23.7386 19.6816 23.6364 20.0626 23.434 20.403C23.2317 20.7334 22.9594 20.9981 22.6171 21.1973C22.2849 21.3865 21.908 21.4801 21.4863 21.4781ZM21.4937 19.912C21.6845 19.9129 21.8403 19.8534 21.9614 19.7335C22.0824 19.6136 22.1434 19.4583 22.1443 19.2675C22.1452 19.0768 22.0857 18.9209 21.9658 18.7999C21.8459 18.6788 21.6905 18.6179 21.4998 18.617C21.3191 18.6161 21.1682 18.6756 21.0472 18.7955C20.9262 18.9154 20.8652 19.0708 20.8643 19.2615C20.8634 19.4523 20.9229 19.6081 21.0428 19.7292C21.1627 19.8502 21.313 19.9112 21.4937 19.912Z" fill="#3385FF"/>
<path d="M41.8347 12.4413C35.3085 3.49399 24.3927 1.4426 17.6286 6.37636C10.8648 11.3103 9.48429 22.3304 16.0103 31.2776C22.5364 40.2248 33.4515 42.2765 40.2157 37.3431L42.1569 40.0044C33.5559 46.2777 20.6582 43.2398 13.3489 33.2188C6.03972 23.1979 7.08669 9.98868 15.6874 3.71499C24.2884 -2.5586 37.1867 0.479044 44.4961 10.5001L44.8327 10.9724C51.7709 20.9326 50.6235 33.8289 42.1569 40.0044L40.2157 37.3431C46.9799 32.4093 48.3609 21.3887 41.8347 12.4413Z" fill="#3385FF"/>
<path d="M14.593 4.94116C15.4278 4.94248 16.1424 5.57608 16.2272 6.42462C16.3063 7.21652 15.8107 7.93337 15.0792 8.16083C15.0658 8.16966 15.0487 8.17969 15.0296 8.193C14.8818 8.29571 14.6664 8.46666 14.3862 8.71138C13.8313 9.19607 13.1263 9.87901 12.3789 10.6507C10.8714 12.2071 9.31301 13.9963 8.55534 15.068C1.9375 24.4297 6.70968 36.4658 15.8881 41.8152C19.0084 43.6338 22.5748 44.62 26.2667 44.4255C30.6855 44.1928 35.1697 43.0567 38.6996 38.5184C39.258 37.8004 40.2932 37.6707 41.0112 38.2288C41.7291 38.7872 41.8589 39.8224 41.3007 40.5404C36.9504 46.1337 31.3531 47.4562 26.4395 47.7151C22.0407 47.9467 17.8443 46.7682 14.23 44.6617C3.91539 38.6503 -2.1965 24.5718 5.86508 13.1673C6.76826 11.8896 8.46423 9.95746 10.0131 8.35844C10.7938 7.5524 11.5685 6.79879 12.2189 6.23068C12.5412 5.94925 12.8599 5.68963 13.15 5.48804C13.2943 5.38776 13.4589 5.28246 13.6325 5.19392C13.7761 5.12073 14.0643 4.98549 14.4248 4.94943L14.593 4.94116Z" fill="#3385FF"/>
</svg>
